<?xml version="1.0" encoding="UTF-8"?>
<svg version="1.1" xmlns="http://www.w3.org/2000/svg" width="1024" height="1024">
<path d="M0 0 C1.6396875 0.00845947 1.6396875 0.00845947 3.3125 0.01708984 C29.32716006 0.40348406 50.55315613 9.11720579 70.875 25.3125 C72.06416016 26.25029297 72.06416016 26.25029297 73.27734375 27.20703125 C90.70259209 41.75359181 103.91559885 65.70149428 105.98193359 88.40405273 C105.875 90.3125 105.875 90.3125 104.28515625 92.44140625 C103.12306641 93.15103516 103.12306641 93.15103516 101.9375 93.875 C85.0110795 105.33368961 75.68278234 122.44255511 70.5390625 141.8046875 C69.63870645 146.56068591 69.13215416 150.64109687 71.125 155.125 C73.03622972 157.51403715 73.93415555 158.49559876 76.875 159.3125 C80.41524142 159.39017129 80.41524142 159.39017129 83.875 158.3125 C87.2388858 154.730951 89.33319984 150.67203651 91.5 146.3125 C102.81546489 124.45935757 121.55063516 106.88315967 144.91601562 98.58789062 C152.06348557 96.32603305 159.37274378 94.64504682 166.875 94.3125 C167.72578125 94.24933594 168.5765625 94.18617188 169.453125 94.12109375 C190.83116733 93.2157395 214.55880928 102.45052845 230.1875 116.75 C232.11465622 118.57619533 233.99567729 120.43591683 235.875 122.3125 C236.86113281 123.28123047 236.86113281 123.28123047 237.8671875 124.26953125 C253.09517169 140.37470347 257.55376544 159.89736096 258.875 181.3125 C263.09554941 182.61854629 265.65287795 181.56808394 269.875 180.3125 C286.0508381 178.22962988 300.01757842 180.00910797 313.61328125 189.5 C323.15655515 197.14780499 330.49978855 207.78036013 332.62890625 219.984375 C334.45834402 237.29143712 329.63744712 251.86049725 319.1574707 265.54663086 C310.11472075 276.54687021 296.75063425 282.28290261 282.875 284.3125 C280.91871737 284.40204993 278.95996738 284.44594226 277.00164318 284.4511652 C275.84397762 284.45663964 274.68631207 284.46211409 273.49356574 284.46775442 C272.23089214 284.46873253 270.96821854 284.46971064 269.6672821 284.47071838 C268.30441847 284.47528769 266.94155622 284.48028825 265.5786956 284.48568195 C261.83716622 284.49924026 258.09564592 284.50667541 254.35409844 284.51310861 C250.31421039 284.52112707 246.2743411 284.53482385 242.23446655 284.54782104 C234.30730918 284.57243697 226.38014708 284.59184206 218.45297166 284.60957379 C209.1703273 284.63056739 199.88770085 284.65701762 190.60507152 284.68374526 C173.97573723 284.73146785 157.34639433 284.77468208 140.71704102 284.81518555 C124.70531439 284.85419235 108.69359689 284.89560969 92.68188477 284.94018555 C91.70309759 284.94290982 90.72431041 284.94563409 89.71586301 284.94844092 C85.77733864 284.95941028 81.8388143 284.97038933 77.90028999 284.98138306 C60.650817 285.02948025 43.40133899 285.07574845 26.15185979 285.12155947 C24.31467802 285.12644073 22.47749627 285.13132994 20.64031455 285.13622728 C14.38184818 285.15290864 8.12338136 285.16940166 1.86491394 285.1856842 C1.00031557 285.18794037 0.1357172 285.19019654 -0.75508112 285.19252107 C-9.98848652 285.21648313 -19.22189036 285.23854911 -28.45531178 285.25534916 C-29.25089547 285.25680921 -30.04647916 285.25826927 -30.86617145 285.25977356 C-37.20336535 285.27136803 -37.20336535 285.27136803 -40.31997638 285.27681401 C-49.17266262 285.29254317 -58.02518529 285.31763138 -66.8777715 285.36314537 C-72.83703847 285.39378094 -78.7962999 285.41563252 -84.7556175 285.43447864 C-87.13408814 285.4439212 -89.51254821 285.4568959 -91.89097655 285.47393715 C-102.53040436 285.54932421 -113.08395684 285.52551133 -123.6776886 284.44068909 C-124.42339652 284.36432722 -125.16910445 284.28796535 -125.93740958 284.20928949 C-146.46035715 281.79747941 -164.61334531 270.55018928 -177.9921875 255.109375 C-191.56059979 237.31636547 -196.63630032 216.26788644 -193.85253906 194.14746094 C-190.40411159 174.46309447 -178.57004607 156.72353501 -162.35546875 145.3125 C-142.70354563 133.14589222 -120.63969137 130.091702 -98.125 135.3125 C-98.3415625 134.41273438 -98.558125 133.51296875 -98.78125 132.5859375 C-105.11472808 103.32292302 -101.00295189 71.85036552 -85.125 46.3125 C-82.97672012 43.11313039 -80.6737088 40.19918975 -78.125 37.3125 C-77.44953125 36.50683594 -76.7740625 35.70117188 -76.078125 34.87109375 C-56.99708752 12.71137824 -29.22626518 -0.15943256 0 0 Z " fill="none" transform="translate(436.125,477.6875)"/>
<path d="M0 0 C5.30189186 4.07076741 10.05866547 8.74017815 14.83154297 13.40625 C15.49541016 14.00824219 16.15927734 14.61023438 16.84326172 15.23046875 C29.51327029 26.9553951 38.54551458 44.03924342 44.83154297 59.90625 C45.12246826 60.63553711 45.41339355 61.36482422 45.71313477 62.11621094 C47.51890173 66.89730856 48.37288934 71.31519468 48.83154297 76.40625 C49.45416016 76.15230469 50.07677734 75.89835938 50.71826172 75.63671875 C77.87961422 65.5222402 110.14293648 67.59648755 136.55126953 79.15673828 C164.77226206 92.24427152 185.17229875 115.31747139 195.83154297 144.40625 C196.99070159 148.3780086 197.98601014 152.35659275 198.83154297 156.40625 C200.05164063 156.44492187 200.05164063 156.44492187 201.29638672 156.484375 C223.83960683 157.60012493 242.3675287 164.5431469 258.45654297 180.90625 C269.08286448 193.16883694 275.25264749 210.29365911 275.83154297 226.40625 C275.88310547 227.47359375 275.93466797 228.5409375 275.98779297 229.640625 C276.57352644 251.60563011 268.41664297 271.20635217 253.58105469 287.17456055 C237.65094298 303.57930763 215.19621065 311.42666439 192.56402493 311.78098011 C189.57405891 311.8065912 186.5850745 311.79546762 183.59507751 311.7804718 C181.91728752 311.78321952 180.23949926 311.78727766 178.56171519 311.79251546 C173.99771593 311.80300681 169.43391525 311.79503602 164.8699249 311.78376496 C159.92985123 311.77486393 154.98980191 311.78338338 150.04972839 311.78962708 C140.39072612 311.79908271 130.73179891 311.79254376 121.07280224 311.78036413 C109.8112088 311.7666963 98.54963294 311.7683862 87.28803331 311.77049746 C67.18753095 311.7736826 47.0870641 311.76204676 26.98657227 311.74243164 C7.50641804 311.72342703 -11.97369459 311.71634537 -31.45385742 311.72192383 C-52.69606993 311.72798894 -73.93826418 311.72779134 -95.18047518 311.716438 C-97.44779011 311.71523078 -99.71510504 311.71402479 -101.98241997 311.71282005 C-103.09781825 311.71221651 -104.21321653 311.71161298 -105.36241477 311.71099115 C-113.20228052 311.70712069 -121.04213945 311.70750223 -128.88200569 311.7094059 C-138.44238023 311.71153343 -148.00271844 311.70626152 -157.56308276 311.69179235 C-162.43583451 311.6845755 -167.3085335 311.68044809 -172.18128967 311.68503571 C-176.65024916 311.68914066 -181.11910015 311.68386637 -185.58804327 311.67140963 C-187.19616327 311.6685049 -188.80429365 311.66888024 -190.41241086 311.67305271 C-204.18473454 311.70551532 -217.55055087 310.87930563 -230.66845703 306.28125 C-232.00372437 305.82057129 -232.00372437 305.82057129 -233.3659668 305.35058594 C-247.40886439 300.34059169 -258.9050604 293.1138078 -270.16845703 283.40625 C-270.97798828 282.72304688 -271.78751953 282.03984375 -272.62158203 281.3359375 C-288.49047897 266.77993491 -296.35888408 246.87776564 -301.16845703 226.40625 C-301.46236328 225.2615625 -301.46236328 225.2615625 -301.76220703 224.09375 C-305.70398195 198.01739285 -298.878234 171.38909285 -284.34814453 149.6875 C-282.69922372 147.50939064 -280.97628775 145.45381479 -279.16845703 143.40625 C-278.49298828 142.60058594 -277.81751953 141.79492188 -277.12158203 140.96484375 C-259.88619188 120.94856618 -236.90046941 110.30711358 -211.16845703 106.40625 C-211.13405518 105.84977783 -211.09965332 105.29330566 -211.06420898 104.7199707 C-208.72820519 69.2960124 -197.81952476 38.54601454 -173.16845703 12.40625 C-172.55615234 11.72949219 -171.94384766 11.05273438 -171.31298828 10.35546875 C-127.3453309 -36.42461874 -49.79360306 -36.12760232 0 0 Z M-108.16845703 4.40625 C-109.26287109 4.72335937 -110.35728516 5.04046875 -111.48486328 5.3671875 C-126.16472696 10.07676834 -139.83985667 17.96423575 -151.16845703 28.40625 C-151.79623047 28.96570313 -152.42400391 29.52515625 -153.07080078 30.1015625 C-173.61337323 49.38642643 -182.40886796 76.20391345 -183.38720703 103.734375 C-183.63994081 115.00103204 -182.80868781 125.43671975 -180.16845703 136.40625 C-180.79107422 136.261875 -181.41369141 136.1175 -182.05517578 135.96875 C-203.90673836 131.58015166 -225.44833103 133.96011617 -244.16845703 146.40625 C-260.49990419 157.95427875 -272.27864575 175.34392344 -275.87109375 195.23535156 C-278.7532943 216.27683539 -273.9503588 235.68338762 -262.25830078 253.28125 C-249.15831018 270.4968434 -229.68779201 282.39248528 -208.16845703 285.40625 C-195.76286093 286.857683 -183.2700274 286.51759809 -170.8034668 286.47363281 C-168.29646938 286.46864353 -165.78947087 286.4641804 -163.28247166 286.46019363 C-158.53129719 286.45212552 -153.78013438 286.44251975 -149.02896811 286.43062578 C-139.37753861 286.40658426 -129.72613244 286.3967377 -120.07467651 286.39099121 C-116.9155982 286.38899031 -113.75651993 286.38693376 -110.59744167 286.38485336 C-109.80081447 286.38433178 -109.00418726 286.3838102 -108.18341983 286.38327281 C-73.67351692 286.35984568 -39.1636554 286.29861349 -4.65382033 286.22832905 C0.26048995 286.21832413 5.17480053 286.20847744 10.08911133 286.19873047 C11.55519311 286.19581841 11.55519311 286.19581841 13.0508927 286.19284752 C29.00554355 286.16157762 44.96017972 286.14476284 60.91485555 286.13305578 C77.42399915 286.1206312 93.933068 286.09314163 110.44216436 286.05163693 C120.56393476 286.02665075 130.68558129 286.01312165 140.80738299 286.01482043 C147.71809173 286.01485026 154.62867329 286.00016459 161.5393324 285.97408572 C165.51333826 285.95951203 169.48708324 285.95117594 173.46111107 285.96044731 C196.61444069 286.00808935 216.67633349 285.83239191 234.83154297 269.40625 C245.64657581 255.7387085 252.56382675 241.28245622 250.83154297 223.40625 C248.56408167 209.82037772 241.18155837 198.32738576 230.64013672 189.58984375 C218.74416252 181.09879955 205.13459031 179.11113247 190.83154297 181.28125 C188.82923715 181.6437364 186.82887062 182.01726768 184.83154297 182.40625 C182.49490918 182.80222318 180.18727582 183.13855309 177.83154297 183.40625 C176.29969004 181.87439707 176.60022588 180.37722195 176.47216797 178.2421875 C174.79638998 154.28279064 166.90029167 136.27058255 149.83154297 119.40625 C149.17669922 118.74109375 148.52185547 118.0759375 147.84716797 117.390625 C133.36910964 103.6550312 110.47397071 95.53743711 90.76904297 95.09375 C64.09309276 95.94966284 42.77123676 106.66683083 24.33935547 125.58984375 C17.08513 133.73672313 11.27426362 142.66639683 6.60644531 152.52026367 C4.64441881 156.50525922 2.93471089 158.6216976 -1.16845703 160.40625 C-4.90624263 160.32996866 -6.60433606 159.87889189 -9.48095703 157.46875 C-12.54239071 153.72699773 -12.36539743 151.20667229 -12.16845703 146.40625 C-9.14484044 129.08013124 -1.07598099 115.09810188 10.83154297 102.40625 C11.84474609 101.30796875 11.84474609 101.30796875 12.87841797 100.1875 C16.24183602 96.67525814 19.68044104 93.93740971 23.83154297 91.40625 C21.75167629 70.78688205 13.24531994 53.09354849 -0.16845703 37.40625 C-0.61189453 36.8184375 -1.05533203 36.230625 -1.51220703 35.625 C-16.23666291 16.59094728 -41.63361469 5.41971543 -64.78955078 1.84765625 C-79.01861437 0.16639295 -94.42315396 0.14225939 -108.16845703 4.40625 Z " fill="#7f82e8" transform="translate(518.16845703125,476.59375)"/>
<path d="M0 0 C7.66051689 3.06420676 7.66051689 3.06420676 9.32275391 6.8972168 C11.3282523 13.95839842 12.83961808 21.10233697 14.31713867 28.28863525 C21.06465115 60.81122675 32.16417514 90.24340368 60.76171875 109.64453125 C76.22945896 119.67689378 94.03677513 124.1193411 111.87011719 127.85766602 C130.46439439 131.78734276 130.46439439 131.78734276 134.5 137 C136.0547669 140.10953379 135.78644437 142.56266761 135.5 146 C134.3125 149.1875 134.3125 149.1875 131.5 152 C123.96941182 154.97145743 115.94209974 156.66328685 108.06079102 158.43310547 C88.86604349 162.76068617 71.4812479 168.3206226 55.5 180 C54.04013672 181.04607422 54.04013672 181.04607422 52.55078125 182.11328125 C28.5327783 200.43663915 20.63741585 230.11329343 14.1640625 258.12744141 C13.26192506 262.02984918 12.34713559 265.92691845 11.375 269.8125 C11.10429688 270.93269531 10.83359375 272.05289062 10.5546875 273.20703125 C9.35616709 276.38089085 8.15806558 277.91256502 5.5 280 C1.66321793 281.39588692 -1.5667196 281.39405172 -5.3125 279.8125 C-9.12439468 276.65407298 -10.79984262 273.88606317 -11.7109375 269.02734375 C-11.90075195 268.05506836 -12.09056641 267.08279297 -12.28613281 266.08105469 C-12.48045898 265.04368164 -12.67478516 264.00630859 -12.875 262.9375 C-13.31184944 260.75325278 -13.75199316 258.56966202 -14.1953125 256.38671875 C-14.41477539 255.30310059 -14.63423828 254.21948242 -14.86035156 253.10302734 C-20.86999599 223.94937061 -33.17424244 195.39067691 -58.7421875 178.34765625 C-73.007878 169.24404057 -88.3887806 163.88805676 -104.76953125 159.9921875 C-105.50384872 159.81721741 -106.2381662 159.64224731 -106.99473572 159.4619751 C-110.70897535 158.58162331 -114.42651662 157.72167287 -118.15209961 156.890625 C-119.54413288 156.57042033 -120.93614235 156.25011214 -122.328125 155.9296875 C-123.5646582 155.65366699 -124.80119141 155.37764648 -126.07519531 155.09326172 C-130.38153981 153.718596 -134.10052637 151.8447607 -136.875 148.1875 C-137.81707395 144.89024117 -137.91260656 142.4187401 -137.5 139 C-133.92220588 132.99853889 -130.02452698 131.78655157 -123.5 130 C-119.23158975 129.00008509 -114.94654091 128.08842716 -110.65719604 127.18313599 C-87.90779732 122.33439943 -67.23962246 115.71668306 -49.5 100 C-48.82710937 99.42121094 -48.15421875 98.84242188 -47.4609375 98.24609375 C-37.50449547 89.06316016 -30.42668122 76.47333163 -25.5 64 C-24.80003906 62.24429688 -24.80003906 62.24429688 -24.0859375 60.453125 C-19.49295982 48.14085711 -16.9755598 35.24988885 -14.30322266 22.41577148 C-14.13973831 21.6442424 -13.97625397 20.87271332 -13.80781555 20.07780457 C-13.50012722 18.62294329 -13.19919315 17.16663001 -12.90641785 15.70869446 C-11.67532942 9.91364607 -10.20485613 5.4454215 -5.625 1.5625 C-2.5 0 -2.5 0 0 0 Z " fill="#7f82e8" transform="translate(596.5,215)"/>
<path d="M0 0 C2.03388847 2.03388847 2.61174267 3.19932991 3.62890625 5.82421875 C3.93658936 6.59797852 4.24427246 7.37173828 4.5612793 8.16894531 C4.89168213 9.00006836 5.22208496 9.83119141 5.5625 10.6875 C18.00359118 40.84599996 39.079947 60.94840235 68.79296875 74.08984375 C70.50211854 74.79467897 72.24609375 75.41536458 74 76 C74 76.66 74 77.32 74 78 C72.96166016 78.4021875 72.96166016 78.4021875 71.90234375 78.8125 C39.84331591 91.65300654 19.52867095 112.52555948 5.76611328 144.16308594 C4.28241672 147.72055342 3.07614339 151.30075709 2 155 C1.34 155 0.68 155 0 155 C-0.35191406 154.00742187 -0.70382812 153.01484375 -1.06640625 151.9921875 C-6.85377254 135.93960962 -13.8545924 119.78915788 -26.30859375 107.71875 C-29 105 -29 105 -29 103 C-29.59167969 102.73316406 -30.18335938 102.46632813 -30.79296875 102.19140625 C-33.03804375 100.97946311 -34.49055853 99.70918102 -36.3125 97.9375 C-46.67806244 88.70657241 -59.91600691 82.36133103 -73 78 C-73 77.34 -73 76.68 -73 76 C-72.07960938 75.6596875 -71.15921875 75.319375 -70.2109375 74.96875 C-56.26094284 69.68269049 -44.15230069 63.08312732 -33 53 C-31.62714844 51.76830078 -31.62714844 51.76830078 -30.2265625 50.51171875 C-15.84108852 36.91200596 -6.03538228 18.74145025 0 0 Z " fill="none" transform="translate(595,281)"/>
<path d="M0 0 C3.81326302 1.02307057 5.65783851 3.38797489 7.5625 6.6875 C8.08057812 8.56553318 8.5907956 10.44826695 8.98828125 12.35546875 C12.32107949 25.8907106 20.47739738 36.46656496 31.5625 44.6875 C38.70258919 48.80471224 45.91840023 51.33758715 54.00390625 52.8515625 C57.13022965 53.87298725 58.55862269 55.0975831 60.5625 57.6875 C60.5 61.3125 60.5 61.3125 59.5625 64.6875 C56.51199273 66.72117151 54.77655006 67.16396352 51.25 67.875 C35.67709039 71.64568029 24.09640742 79.81738635 15.60009766 93.25634766 C11.89284151 99.45278518 9.80114849 105.91955169 7.9921875 112.8828125 C6.38690847 118.97268057 6.38690847 118.97268057 3.5625 120.6875 C0.625 121.1875 0.625 121.1875 -2.4375 120.6875 C-6.1668827 116.9438558 -7.48347061 112.98180016 -8.8125 108 C-12.88108623 94.02515269 -20.60687415 82.90216502 -33.4375 75.6875 C-39.82894171 72.34953638 -46.06662401 70.04618753 -53.125 68.55859375 C-56.00630369 67.4732378 -56.94754288 66.3547675 -58.4375 63.6875 C-58.5 60.125 -58.5 60.125 -57.4375 56.6875 C-53.52930819 54.34600316 -49.63269882 53.09170143 -45.25 51.9375 C-30.76267721 47.63269551 -20.09977644 38.03680218 -12.91796875 24.91015625 C-10.72514205 20.29263296 -9.12383458 15.76798188 -7.875 10.8125 C-6.5973518 5.82324807 -5.40324939 1.52399342 0 0 Z " fill="#7f82e8" transform="translate(740.4375,426.3125)"/>
<path d="M0 0 C4.12239436 2.16425704 5.68870157 5.12132421 7.75 9.125 C12.43681171 18.12703477 19.40292842 24.78725989 27.15234375 31.2109375 C29.05774662 33.05591533 30.03731412 34.54261762 31 37 C30.90294406 40.00873428 29.95597881 41.04935709 27.9375 43.3125 C25.67667496 45.3809144 23.38886773 47.3828805 21.0625 49.375 C15.43145135 54.29820576 11.41262679 59.02905096 7.9375 65.6875 C3.9922019 73.09895148 3.9922019 73.09895148 0 75 C-2.88768612 75.26041258 -5.267692 74.97417732 -8 74 C-10.30921588 71.88871691 -11.59461503 69.7785234 -13.03125 67.01953125 C-17.78124105 57.95282535 -24.49648318 50.94733605 -32.37109375 44.47265625 C-34.61039264 42.44815821 -35.87309258 40.67079639 -36.4375 37.6875 C-35.55418309 32.26141044 -31.04604937 28.98024773 -27.0625 25.5625 C-20.26260891 19.70491591 -15.98803916 13.58350905 -11.7109375 5.671875 C-8.59562248 0.8068625 -5.79983989 -0.82854856 0 0 Z " fill="#7f82e8" transform="translate(401,251)"/>
<path d="M0 0 C4.4104079 1.41242402 6.30752435 4.95053409 8.75 8.625 C12.23160627 13.72949346 15.7265499 18.06945314 20.50390625 22.05859375 C22.81691452 25.06006923 23.06055141 27.24177551 23 31 C21.19769864 33.30842709 19.68643229 34.89006729 17.5 36.75 C12.51186137 41.31301318 8.84852408 45.78425807 5.5 51.72265625 C3.89620397 54.15758616 2.47513278 55.48094792 0 57 C-3.83652698 57.66722208 -5.49489847 57.3142854 -8.8125 55.25 C-12.676699 51.70781758 -15.55135917 47.3023937 -18.609375 43.07421875 C-21.52777676 39.32130669 -24.79782737 36.18449162 -28.34765625 33.03515625 C-30 31 -30 31 -30.375 28.4296875 C-29.60297392 23.42760188 -25.45292433 20.31793043 -21.6875 17.3125 C-17.60517534 13.96107189 -14.8452575 9.83324068 -11.89453125 5.48828125 C-8.36131517 0.84774797 -5.87752078 -0.61224175 0 0 Z " fill="#7f82e8" transform="translate(308,362)"/>
</svg>
